<?xml version="1.0" encoding="UTF-8" standalone="no"?>
<!-- Created with Inkscape (http://www.inkscape.org/) -->

<svg
   xmlns:dc="http://purl.org/dc/elements/1.1/"
   xmlns:cc="http://creativecommons.org/ns#"
   xmlns:rdf="http://www.w3.org/1999/02/22-rdf-syntax-ns#"
   xmlns:svg="http://www.w3.org/2000/svg"
   xmlns="http://www.w3.org/2000/svg"
   xmlns:sodipodi="http://sodipodi.sourceforge.net/DTD/sodipodi-0.dtd"
   xmlns:inkscape="http://www.inkscape.org/namespaces/inkscape"
   version="1.1"
   id="svg2"
   width="681.40552"
   height="784.32471"
   viewBox="0 0 681.40552 784.32471"
   sodipodi:docname="vector.png.svg"
   inkscape:version="0.92.5 (2060ec1f9f, 2020-04-08)">
  <metadata
     id="metadata8">
    <rdf:RDF>
      <cc:Work
         rdf:about="">
        <dc:format>image/svg+xml</dc:format>
        <dc:type
           rdf:resource="http://purl.org/dc/dcmitype/StillImage" />
        <dc:title></dc:title>
      </cc:Work>
    </rdf:RDF>
  </metadata>
  <defs
     id="defs6" />
  <sodipodi:namedview
     pagecolor="#ffffff"
     bordercolor="#666666"
     borderopacity="1"
     objecttolerance="10"
     gridtolerance="10"
     guidetolerance="10"
     inkscape:pageopacity="0"
     inkscape:pageshadow="2"
     inkscape:window-width="1920"
     inkscape:window-height="996"
     id="namedview4"
     showgrid="false"
     inkscape:zoom="0.834386"
     inkscape:cx="69.698752"
     inkscape:cy="369.9608"
     inkscape:window-x="0"
     inkscape:window-y="0"
     inkscape:window-maximized="1"
     inkscape:current-layer="svg2" />
  <g
     id="g4654"
     transform="translate(-113.95252,-30.050452)">
    <path
       style="fill:#fcc941;stroke-width:1.33333337"
       d="m 442.02538,809.49714 c -4.76666,-2.65992 -14.57248,-8.34125 -21.7907,-12.62517 -7.21823,-4.28391 -13.32711,-7.78894 -13.5753,-7.78894 -0.24817,0 -8.05316,-4.5 -17.3444,-10 -9.29122,-5.5 -17.07156,-10 -17.2896,-10 -0.21804,0 -7.99837,-4.5 -17.2896,-10 -9.29124,-5.5 -17.09124,-10 -17.33333,-10 -0.24211,0 -8.04211,-4.5 -17.33333,-10 -9.29124,-5.5 -17.09124,-10 -17.33334,-10 -0.2421,0 -7.85098,-4.3822 -16.90862,-9.73822 -9.05764,-5.35604 -17.36844,-10.1612 -18.46844,-10.67814 -1.1,-0.51694 -4.1,-2.1973 -6.66667,-3.73413 -2.56667,-1.53683 -10.36667,-6.12585 -17.33333,-10.19783 -6.96667,-4.07197 -13.10748,-8.05941 -13.64626,-8.86097 -0.53877,-0.80156 -0.98877,-58.47387 -1,-128.16069 -0.0181,-112.54018 0.2116,-127.03458 2.05519,-129.66667 1.14159,-1.62984 2.60047,-2.96335 3.24196,-2.96335 0.64149,0 8.76827,-4.5 18.05951,-10 9.29122,-5.5 17.07156,-10 17.2896,-10 0.21804,0 7.95184,-4.47245 17.1862,-9.93878 9.23437,-5.46634 17.84516,-10.11634 19.1351,-10.33334 2.22272,-0.37392 2.36315,6.28264 2.6854,127.29298 l 0.34003,127.6875 7.26259,4.64583 c 3.99441,2.5552 7.53424,4.64581 7.86628,4.64581 0.33202,0 9.71801,5.4 20.85773,12 11.13972,6.6 20.448,12 20.68505,12 0.23704,0 6.32988,3.48024 13.53964,7.73387 7.20975,4.25363 14.00864,8.15877 15.10864,8.67813 1.1,0.51935 3.99328,2.1511 6.42952,3.62611 2.43624,1.47503 16.53624,9.66337 31.33334,18.19635 14.79709,8.53297 29.14189,16.92098 31.87732,18.64002 2.73542,1.71903 5.23537,3.12552 5.55542,3.12552 0.32007,0 7.08199,3.83431 15.02651,8.52068 13.73245,8.10062 19.09451,11.17967 36.77789,21.11898 4.71852,2.65214 7.66667,5.19625 7.66667,6.61596 0,1.52358 -5.01721,5.26685 -14.77789,11.02557 -8.12786,4.79535 -14.97203,8.71881 -15.2093,8.71881 -0.23726,0 -6.34476,3.51126 -13.57221,7.80278 -19.47773,11.56552 -30.62064,17.5357 -32.64207,17.48906 -0.98918,-0.0228 -5.69853,-2.2178 -10.4652,-4.87773 z m 111.33334,-59.95741 c -5.86667,-3.39312 -18.16667,-10.49847 -27.33334,-15.78966 -9.16666,-5.29118 -25.96666,-15.00628 -37.33333,-21.5891 -11.36667,-6.58284 -26.96667,-15.59568 -34.66667,-20.02856 -7.7,-4.43288 -23.3,-13.43544 -34.66666,-20.0057 -11.36667,-6.57026 -29.36667,-16.94825 -40,-23.06221 -33.85406,-19.46543 -41.03223,-23.94028 -41.85902,-26.09485 -1.05552,-2.75066 -1.05396,-94.36 10e-4,-97.1109 1.33496,-3.47886 5.6517,-2.43361 16.06912,3.89095 5.43554,3.3 10.16225,6 10.5038,6 0.34154,0 8.57026,4.71464 18.28604,10.47697 9.71578,5.76235 20.66505,12.12934 24.33172,14.14886 3.66666,2.01953 12.06666,6.81794 18.66666,10.66313 6.6,3.84519 19.8,11.49269 29.33334,16.99445 9.53333,5.50178 26.63333,15.38916 38,21.97199 11.36666,6.58284 26.96666,15.59447 34.66666,20.02584 7.7,4.43139 19.3064,11.13095 25.792,14.88791 6.4856,3.75697 12.51498,6.83085 13.39862,6.83085 0.88362,0 10.74893,-5.4 21.92288,-12 11.17394,-6.6 20.60649,-12 20.96121,-12 0.35472,0 2.88303,-1.41133 5.61845,-3.13631 4.45968,-2.81228 43.1838,-25.26188 54.97351,-31.86988 2.56667,-1.43858 13.96667,-8.02336 25.33333,-14.63284 11.36667,-6.60948 26.66667,-15.46669 34,-19.68269 7.33334,-4.21601 20.53334,-11.8544 29.33334,-16.9742 26.99668,-15.70656 32.0234,-18.23623 34.41417,-17.3188 2.05807,0.78975 2.25249,5.10631 2.25249,50.00712 v 49.14276 l -3.08593,2.89909 c -1.69693,1.5945 -3.48659,2.89908 -3.97668,2.89908 -0.49008,0 -9.75141,5.18715 -20.58073,11.52699 -10.82931,6.33984 -27.48966,16.02679 -37.02299,21.52656 -9.53333,5.49976 -22.73333,13.14564 -29.33333,16.99083 -6.6,3.84518 -15,8.66098 -18.66667,10.70176 -3.66667,2.04078 -14.64059,8.40776 -24.38649,14.14885 -9.7459,5.74109 -17.96799,10.43835 -18.27132,10.43835 -0.30332,0 -6.4294,3.49525 -13.61351,7.76722 -37.97336,22.58058 -57.86168,33.57863 -60.66247,33.54579 -0.95308,-0.0107 -6.53288,-2.79652 -12.39954,-6.18965 z M 194.6723,664.91357 c -2.92246,-1.55988 -12.21358,-6.8632 -20.64692,-11.78516 -41.87172,-24.43767 -50.27139,-29.26202 -53.51963,-30.73903 -1.9358,-0.88023 -4.1858,-3.06248 -5,-4.84944 -1.99318,-4.37455 -2.10648,-258.12899 -0.11691,-261.84652 1.12974,-2.11093 35.77479,-23.94372 37.99476,-23.94372 0.38213,0 2.93285,-1.41133 5.66828,-3.13631 4.45968,-2.81228 43.1838,-25.26188 54.9735,-31.86988 2.56667,-1.43858 13.96667,-8.02336 25.33334,-14.63284 11.36666,-6.60948 26.96666,-15.64144 34.66666,-20.07101 7.7,-4.42957 22.4,-12.94999 32.66667,-18.93423 28.30639,-16.49928 33.71908,-19.35573 36.67711,-19.35573 2.67657,0 11.06116,4.49555 38.65622,20.72625 7.7,4.52894 20.6,11.98662 28.66667,16.57262 15.60392,8.87102 19.35044,11.57013 19.30487,13.90778 -0.0267,1.36626 -7.81267,6.09855 -51.30487,31.18278 -9.53333,5.49836 -22.73333,13.14309 -29.33333,16.98828 -6.6,3.84518 -15,8.64093 -18.66667,10.6572 -3.66667,2.01628 -13.56667,7.69782 -22,12.62565 -8.43333,4.92784 -23.43333,13.63209 -33.33333,19.3428 -9.9,5.71071 -23.4,13.52916 -30,17.37435 -6.6,3.84518 -14.96848,8.64366 -18.59663,10.66328 -13.32091,7.4151 -20.09348,11.63366 -21.04963,13.11156 -0.53877,0.83276 -0.98877,59.86412 -1,131.18078 -0.0193,123.00998 -0.14121,129.66667 -2.37349,129.66667 -1.29419,0 -4.74419,-1.27627 -7.66667,-2.83613 z m 363.35308,-47.3855 c -62.0463,-35.59782 -69.33333,-39.98404 -69.33333,-41.73313 0,-1.00044 35.09788,-22.71191 36.71513,-22.71191 0.2395,0 8.03736,-4.5 17.3286,-10 9.29123,-5.5 17.07156,-10 17.2896,-10 0.21804,0 7.99838,-4.5 17.2896,-10 9.29124,-5.5 17.11092,-10 17.37707,-10 0.26615,0 8.08583,-4.5 17.37707,-10 9.29122,-5.5 17.07156,-10 17.2896,-10 0.21804,0 7.99837,-4.5 17.2896,-10 9.29124,-5.5 17.09124,-10 17.33333,-10 0.24211,0 8.14949,-4.56357 17.57199,-10.14126 9.4225,-5.57771 19.37444,-11.28539 22.11542,-12.68374 l 4.98362,-2.54244 0.35301,-127.8721 c 0.19417,-70.32967 0.72549,-128.24446 1.18072,-128.69954 1.20263,-1.20222 6.47795,1.3927 24.93036,12.26315 9.03359,5.32176 16.62065,9.67593 16.86015,9.67593 0.23948,0 8.60132,4.82964 18.58186,10.73252 l 18.14644,10.73254 -0.33992,129.49116 -0.33992,129.49114 -10,5.91406 c -5.5,3.25272 -13,7.58946 -16.66666,9.63721 -3.66667,2.04775 -12.86556,7.38576 -20.44198,11.86227 -7.57642,4.4765 -13.96562,8.1391 -14.19822,8.1391 -0.2326,0 -8.02484,4.5 -17.31607,10 -9.29124,5.5 -17.09124,10 -17.33333,10 -0.24211,0 -8.04211,4.5 -17.33334,10 -9.29124,5.5 -17.09488,10 -17.34142,10 -0.24655,0 -9.56259,5.4 -20.70231,12 -11.13972,6.6 -20.448,12 -20.68505,12 -0.23704,0 -6.32988,3.48024 -13.53964,7.73387 -7.20975,4.25363 -14.00864,8.17716 -15.10864,8.71896 -1.1,0.5418 -3.21222,1.71156 -4.6938,2.59947 -11.82747,7.0881 -15.34334,8.9404 -16.87696,8.89141 -0.96942,-0.0309 -4.46258,-1.60536 -7.76258,-3.49867 z m 38.22223,-144.0006 c -0.48889,-0.48888 -0.88889,-58.88429 -0.88889,-129.76757 V 214.88121 l -3,-2.73102 c -1.65,-1.50204 -6,-4.37361 -9.66667,-6.38126 -3.66667,-2.00766 -12.06667,-6.79634 -18.66667,-10.64152 -6.6,-3.84519 -20.1,-11.66364 -30,-17.37435 -9.9,-5.71071 -24.9,-14.41496 -33.33333,-19.3428 -8.43333,-4.92783 -18.33333,-10.60937 -22,-12.62565 -3.66667,-2.01627 -12.06667,-6.81776 -18.66667,-10.66996 -6.6,-3.85221 -20.22852,-11.73523 -30.28558,-17.51782 -47.47454,-27.296777 -59.0507,-34.54057 -59.42196,-37.183344 -0.28074,-1.998276 1.21829,-3.483645 6,-5.945372 3.50581,-1.804872 8.47421,-4.566206 11.04088,-6.1363 2.56666,-1.570093 14.86666,-8.733756 27.33333,-15.919249 12.46667,-7.185493 25.66667,-14.795557 29.33333,-16.911253 13.15554,-7.590849 10.7725,-7.828524 29.61726,2.953902 9.37717,5.365354 24.24941,13.929412 33.04941,19.031242 8.8,5.101829 22,12.725512 29.33333,16.941517 7.33334,4.216005 22.63334,13.073219 34,19.682696 11.36667,6.609481 22.76667,13.194261 25.33334,14.632851 11.7897,6.608 50.51382,29.0576 54.9735,31.86988 2.73543,1.72496 5.26702,3.1363 5.62576,3.1363 1.12056,0 23.94423,13.59276 26.40074,15.72311 2.19282,1.90168 2.33333,9.95681 2.33333,133.76757 v 131.74404 l -17.99839,10.71597 c -9.8991,5.89379 -18.2712,10.71598 -18.60465,10.71598 -0.33344,0 -6.48417,3.49076 -13.66828,7.75724 -20.57903,12.22144 -34.90073,20.24276 -36.14249,20.24276 -0.62796,0 -1.54175,-0.4 -2.03063,-0.8889 z M 116.16804,314.97398 c -0.44513,-1.15997 -0.80932,-21.01925 -0.80932,-44.13172 v -42.02267 l 4.141,-3.86828 c 2.27756,-2.12756 4.61676,-3.86828 5.19823,-3.86828 0.58147,0 8.65914,-4.5 17.95037,-10 9.29124,-5.5 17.16396,-10 17.49494,-10 0.33098,0 2.83986,-1.40649 5.57529,-3.12552 4.79193,-3.01142 52.62103,-30.7086 64.5101,-37.35692 3.1882,-1.78282 11.99563,-6.90362 19.57204,-11.37953 7.57643,-4.47592 13.96927,-8.13803 14.20631,-8.13803 0.23705,0 9.54533,-5.4 20.68505,-12 11.13972,-6.6 20.448,-12 20.68505,-12 0.23704,0 6.32988,-3.45 13.53964,-7.66666 21.76678,-12.730429 18.6626,-12.167152 30.65398,-5.56241 5.75006,3.16708 17.86546,10.13925 26.9231,15.4937 9.05764,5.35446 16.66652,9.73537 16.90863,9.73537 0.24209,0 8.04209,4.5 17.33333,10 9.29123,5.5 17.09123,10 17.33334,10 0.24209,0 8.04209,4.5 17.33333,10 9.29123,5.5 17.09123,10 17.33333,10 0.2421,0 8.0421,4.5 17.33334,10 9.29122,5.5 17.07653,10 17.30066,10 0.22414,0 6.31334,3.5018 13.53156,7.78178 7.21823,4.27997 16.12404,9.45024 19.79071,11.48949 3.66667,2.03925 12.21667,6.97247 19,10.96268 l 12.33333,7.25495 v 44.5102 c 0,28.8653 -0.47882,44.80612 -1.36226,45.35212 -0.74924,0.46305 -4.35826,-1.00154 -8.02003,-3.25464 -3.66177,-2.25312 -6.89159,-4.09658 -7.17739,-4.09658 -0.28578,0 -9.63393,-5.4 -20.77365,-12 -11.13972,-6.6 -20.448,-12 -20.68505,-12 -0.23704,0 -6.32988,-3.48024 -13.53964,-7.73386 -7.20975,-4.25363 -14.00864,-8.15878 -15.10864,-8.67814 -1.1,-0.51934 -3.99328,-2.15109 -6.42952,-3.6261 -2.43624,-1.47503 -16.53624,-9.66338 -31.33334,-18.19635 -14.79709,-8.53297 -29.14189,-16.92099 -31.87732,-18.64003 -2.73542,-1.71902 -5.23653,-3.12552 -5.55802,-3.12552 -0.32148,0 -6.7834,-3.6621 -14.35983,-8.13802 -7.57641,-4.47592 -16.47531,-9.64706 -19.77531,-11.4914 -3.3,-1.84436 -10.63858,-6.02819 -16.30797,-9.29739 l -10.30799,-5.944 -9.8962,5.36799 c -5.4429,2.95238 -16.01014,8.99832 -23.48273,13.4354 -7.47259,4.43708 -13.78959,8.06742 -14.03777,8.06742 -0.24818,0 -8.05316,4.5 -17.3444,10 -9.29123,5.5 -17.07156,10 -17.2896,10 -0.21804,0 -7.99838,4.5 -17.2896,10 -9.29124,5.5 -17.09124,10 -17.33334,10 -0.2421,0 -8.0421,4.5 -17.33333,10 -9.29124,5.5 -17.09124,10 -17.33333,10 -0.24211,0 -8.0421,4.5 -17.33334,10 -9.29124,5.5 -17.09124,10 -17.33333,10 -0.2421,0 -8.0421,4.5 -17.33334,10 -9.29123,5.5 -17.38784,10 -17.99245,10 -0.60462,0 -1.4635,-0.94906 -1.90862,-2.10905 z"
       id="path4658"
       inkscape:connector-curvature="0" />
    <path
       style="fill:#060606;stroke-width:1.33333337"
       d="m 558.95958,751.02114 c -3.50785,-1.86737 -11.77417,-6.66737 -18.3696,-10.66667 -6.59544,-3.99929 -12.26357,-7.27144 -12.59588,-7.27144 -0.59641,0 -26.09178,-14.75834 -29.96872,-17.34781 -1.1,-0.73471 -2.9,-1.7498 -4,-2.25577 -1.1,-0.50598 -9.4108,-5.30215 -18.46844,-10.65819 -9.05764,-5.35603 -16.66652,-9.73823 -16.90862,-9.73823 -0.2421,0 -8.0421,-4.5 -17.33334,-10 -9.29122,-5.5 -17.09122,-10 -17.33333,-10 -0.24209,0 -8.04209,-4.5 -17.33333,-10 -9.29123,-5.5 -17.09123,-10 -17.33334,-10 -0.24209,0 -8.04209,-4.5 -17.33333,-10 -9.29123,-5.5 -17.16117,-10 -17.48876,-10 -0.32759,0 -3.86679,-2.09254 -7.86489,-4.6501 l -7.26928,-4.65011 v -48.72507 c 0,-39.65298 0.33484,-48.85357 1.79834,-49.41517 0.98911,-0.37955 9.44991,3.83928 18.80179,9.37519 9.35188,5.53589 17.20149,10.06526 17.4436,10.06526 0.24209,0 8.04209,4.5 17.33333,10 9.29123,5.5 17.09147,10 17.33386,10 0.24238,0 8.43158,4.69158 18.19822,10.42571 9.76664,5.73413 24.95562,14.58413 33.7533,19.66667 8.79768,5.08253 17.19768,9.96742 18.66666,10.85533 1.46899,0.88791 3.5709,2.04668 4.6709,2.57505 1.1,0.52838 8.3,4.64372 16,9.1452 55.50794,32.45047 60.6581,35.33204 63.14794,35.33204 1.08246,0 8.06588,-3.6 15.51872,-8 7.45284,-4.4 13.74094,-8 13.97354,-8 0.2326,0 8.02484,-4.5 17.31606,-10 9.29124,-5.5 17.09124,-10 17.33334,-10 0.2421,0 8.0421,-4.5 17.33333,-10 9.29124,-5.5 17.09124,-10 17.33333,-10 0.24211,0 8.04211,-4.5 17.33334,-10 9.29124,-5.5 17.09124,-10 17.33333,-10 0.24211,0 8.04211,-4.5 17.33333,-10 9.29124,-5.5 17.09124,-10 17.33334,-10 0.2421,0 8.0421,-4.5 17.33333,-10 9.29124,-5.5 17.13076,-10 17.42116,-10 0.29039,0 4.97525,-2.7 10.4108,-6 10.87661,-6.60334 12.21276,-6.99125 13.40245,-3.89094 1.16835,3.04465 0.95878,94.25849 -0.22082,96.11269 -0.83334,1.30991 -34.28531,21.77825 -35.59279,21.77825 -0.24211,0 -8.04211,4.5 -17.33333,10 -9.29124,5.5 -17.09124,10 -17.33334,10 -0.2421,0 -8.0421,4.5 -17.33333,10 -9.29124,5.5 -17.09124,10 -17.33333,10 -0.24211,0 -8.04211,4.5 -17.33334,10 -9.29124,5.5 -17.09124,10 -17.33333,10 -0.24211,0 -8.04211,4.5 -17.33333,10 -9.29124,5.5 -17.09124,10 -17.33334,10 -0.2421,0 -8.0421,4.5 -17.33333,10 -9.29124,5.5 -17.12199,10 -17.40168,10 -0.27968,0 -3.98856,2.09846 -8.24195,4.66324 -4.25338,2.56479 -8.33821,4.66479 -9.07738,4.66667 -0.73916,10e-4 -4.214,-1.52443 -7.72186,-3.3918 z M 196.55592,663.96745 c -8.75938,-4.56775 -23.28015,-12.74331 -31.1972,-17.56482 -4.4,-2.6796 -11,-6.53894 -14.66667,-8.57632 -3.66667,-2.03737 -12.81667,-7.29324 -20.33333,-11.6797 l -13.66667,-7.97542 V 486.37131 354.57142 l 11.45867,-6.7442 c 6.30226,-3.70931 11.64146,-6.74419 11.86489,-6.74419 0.22342,0 8.00814,-4.5 17.29938,-10 9.29124,-5.5 17.09124,-10 17.33333,-10 0.2421,0 8.0421,-4.5 17.33333,-10 9.29124,-5.5 17.09124,-10 17.33333,-10 0.24211,0 8.04211,-4.5 17.33334,-10 9.29124,-5.5 17.09124,-10 17.33333,-10 0.24211,0 8.04211,-4.5 17.33333,-10 9.29124,-5.5 17.09124,-10 17.33334,-10 0.2421,0 8.0421,-4.5 17.33333,-10 9.29124,-5.5 17.12413,-10 17.40643,-10 0.2823,0 6.47253,-3.6 13.75606,-8 7.28354,-4.4 14.50443,-8 16.04643,-8 2.24628,0 22.75044,11.05759 32.16815,17.34782 1.1,0.7347 2.9,1.74078 4,2.23572 1.1,0.49494 8.3,4.58528 16,9.08964 7.7,4.50436 18.0289,10.5079 22.95313,13.34124 4.92423,2.83332 9.24493,5.91189 9.60157,6.84126 0.38578,1.00532 -2.43062,3.46956 -6.95314,6.08372 -4.18086,2.41667 -8.80156,5.1204 -10.26823,6.00831 -1.46667,0.88791 -3.56448,2.05881 -4.66181,2.60204 -1.09734,0.54321 -7.85436,4.46675 -15.0156,8.71896 -7.16124,4.25221 -13.24779,7.73129 -13.52566,7.73129 -0.27788,0 -9.60361,5.4 -20.72388,12 -11.12025,6.6 -20.42509,12 -20.67741,12 -0.25231,0 -8.06068,4.5 -17.35191,10 -9.29124,5.5 -17.09124,10 -17.33333,10 -0.24211,0 -8.04211,4.5 -17.33333,10 -9.29124,5.5 -17.09124,10 -17.33334,10 -0.2421,0 -8.0421,4.5 -17.33333,10 -9.29124,5.5 -17.08669,10 -17.32324,10 -0.77761,0 -24.73124,14.34907 -26.74872,16.02343 -1.71529,1.42357 -1.97177,18.42776 -1.97177,130.72781 0,71.00026 -0.51126,129.40736 -1.13614,129.79355 -0.62486,0.38619 -3.17486,-0.36097 -5.66666,-1.66037 z M 597.58094,472.19414 c -0.48889,-0.48888 -0.88889,-58.42833 -0.88889,-128.75432 0,-79.12592 -0.48781,-128.77693 -1.27977,-130.25669 -1.02779,-1.92047 -16.21951,-12.1001 -18.05775,-12.1001 -0.26384,0 -8.08164,-4.5 -17.37288,-10 -9.29123,-5.5 -17.09123,-10 -17.33333,-10 -0.2421,0 -8.0421,-4.5 -17.33334,-10 -9.29122,-5.5 -17.09122,-10 -17.33333,-10 -0.24209,0 -8.04209,-4.5 -17.33333,-10 -9.29123,-5.5 -17.08278,-10 -17.31454,-10 -0.23177,0 -5.12097,-2.78054 -10.86489,-6.17898 -10.89683,-6.4472 -51.67029,-30.05818 -58.2194,-33.71353 -2.07673,-1.15912 -4.79824,-2.707487 -6.0478,-3.44082 -1.24955,-0.733334 -7.49305,-4.333334 -13.87444,-8 -9.81561,-5.639926 -14.28993,-9.40691 -12.66659,-10.664135 1.06431,-0.824264 30.65211,-18.002532 31.00751,-18.002532 0.23119,0 8.02225,-4.5 17.31348,-10 9.29124,-5.5 17.10904,-10 17.37288,-10 0.26385,0 4.12885,-2.173775 8.58891,-4.830611 6.07745,-3.620318 9.05206,-4.642032 11.8725,-4.077943 2.06984,0.413966 11.42451,5.287741 20.78816,10.83061 9.36366,5.542869 17.22291,10.077944 17.46502,10.077944 0.24209,0 8.04209,4.5 17.33333,10 9.29123,5.5 17.09123,10 17.33333,10 0.2421,0 8.0421,4.5 17.33334,10 9.29122,5.5 17.09122,10 17.33333,10 0.24209,0 8.04209,4.5 17.33333,9.999997 9.29123,5.5 17.09123,10 17.33334,10 0.24209,0 8.04209,4.5 17.33333,10 9.29123,5.5 17.09123,10 17.33333,10 0.2421,0 7.8313,4.35 16.86488,9.66667 9.0336,5.31667 18.7329,10.86667 21.55402,12.33333 2.8211,1.46667 6.5711,3.98802 8.33333,5.603 l 3.20404,2.93634 -0.0196,127.73033 c -0.0152,98.69983 -0.39399,128.46741 -1.66667,130.97336 -1.56936,3.09012 -5.38774,5.70259 -21.27693,14.55733 -3.87021,2.15679 -13.23564,7.58403 -20.81205,12.06054 -7.57648,4.4765 -13.97066,8.1391 -14.20935,8.1391 -0.23869,0 -6.49681,3.6 -13.90695,8 -14.70541,8.7318 -13.95125,8.37943 -15.21956,7.11111 z"
       id="path4656"
       inkscape:connector-curvature="0" />
  </g>
</svg>
