<svg width="41" height="41" viewBox="0 0 41 41" fill="none" xmlns="http://www.w3.org/2000/svg">
<path d="M24.25 4.12938C24.25 2.815 23.185 1.75 21.8706 1.75H19.1313C17.815 1.75 16.75 2.815 16.75 4.12938C16.75 5.21313 16.0075 6.14312 14.9969 6.54062C14.8375 6.60437 14.6781 6.67187 14.5225 6.73937C13.5269 7.17062 12.3437 7.03938 11.575 6.2725C11.1288 5.82665 10.5239 5.57619 9.89312 5.57619C9.26237 5.57619 8.65742 5.82665 8.21125 6.2725L6.2725 8.21125C5.82665 8.65742 5.57619 9.26237 5.57619 9.89312C5.57619 10.5239 5.82665 11.1288 6.2725 11.575V11.575C7.04125 12.3437 7.1725 13.525 6.7375 14.5225C6.66915 14.6795 6.60352 14.8376 6.54062 14.9969C6.14312 16.0075 5.21313 16.75 4.12938 16.75C2.815 16.75 1.75 17.815 1.75 19.1294V21.8706C1.75 23.185 2.815 24.25 4.12938 24.25C5.21313 24.25 6.14312 24.9925 6.54062 26.0031C6.60437 26.1625 6.67187 26.3219 6.7375 26.4775C7.17062 27.4731 7.03938 28.6563 6.2725 29.425C5.82665 29.8712 5.57619 30.4761 5.57619 31.1069C5.57619 31.7376 5.82665 32.3426 6.2725 32.7888L8.21125 34.7275C8.65742 35.1734 9.26237 35.4238 9.89312 35.4238C10.5239 35.4238 11.1288 35.1734 11.575 34.7275C12.3437 33.9587 13.525 33.8275 14.5225 34.2606C14.6781 34.33 14.8375 34.3956 14.9969 34.4594C16.0075 34.8569 16.75 35.7869 16.75 36.8706C16.75 38.185 17.815 39.25 19.1294 39.25H21.8706C23.185 39.25 24.25 38.185 24.25 36.8706C24.25 35.7869 24.9925 34.8569 26.0031 34.4575C26.1625 34.3956 26.3219 34.33 26.4775 34.2625C27.4731 33.8275 28.6563 33.9606 29.4231 34.7275C29.6441 34.9485 29.9064 35.1239 30.1952 35.2435C30.4839 35.3632 30.7934 35.4247 31.1059 35.4247C31.4185 35.4247 31.728 35.3632 32.0167 35.2435C32.3054 35.1239 32.5678 34.9485 32.7888 34.7275L34.7275 32.7888C35.1734 32.3426 35.4238 31.7376 35.4238 31.1069C35.4238 30.4761 35.1734 29.8712 34.7275 29.425V29.425C33.9587 28.6563 33.8275 27.475 34.2606 26.4775C34.33 26.3219 34.3956 26.1625 34.4594 26.0031C34.8569 24.9925 35.7869 24.25 36.8706 24.25C38.185 24.25 39.25 23.185 39.25 21.8706V19.1313C39.25 17.8169 38.185 16.7519 36.8706 16.7519C35.7869 16.7519 34.8569 16.0094 34.4575 14.9987C34.3947 14.8395 34.329 14.6813 34.2606 14.5244C33.8294 13.5287 33.9606 12.3456 34.7275 11.5769C35.1734 11.1307 35.4238 10.5258 35.4238 9.895C35.4238 9.26424 35.1734 8.6593 34.7275 8.21313L32.7888 6.27438C32.3426 5.82852 31.7376 5.57807 31.1069 5.57807C30.4761 5.57807 29.8712 5.82852 29.425 6.27438V6.27438C28.6563 7.04313 27.475 7.17438 26.4775 6.74125C26.3205 6.67226 26.1624 6.606 26.0031 6.5425C24.9925 6.14313 24.25 5.21313 24.25 4.13125V4.12938Z" stroke="#EEEEEE" stroke-width="2"/>
<path d="M28 20.5C28 22.4891 27.2098 24.3968 25.8033 25.8033C24.3968 27.2098 22.4891 28 20.5 28C18.5109 28 16.6032 27.2098 15.1967 25.8033C13.7902 24.3968 13 22.4891 13 20.5C13 18.5109 13.7902 16.6032 15.1967 15.1967C16.6032 13.7902 18.5109 13 20.5 13C22.4891 13 24.3968 13.7902 25.8033 15.1967C27.2098 16.6032 28 18.5109 28 20.5V20.5Z" stroke="#EEEEEE" stroke-width="2"/>
</svg>
