<svg width="28" height="14" viewBox="0 0 28 14" fill="none" xmlns="http://www.w3.org/2000/svg">
<path d="M27.3333 7.00001C27.3333 3.31801 24.3487 0.333344 20.6667 0.333344H7.33334C3.65134 0.333344 0.666672 3.31801 0.666672 7.00001C0.666672 10.682 3.65134 13.6667 7.33334 13.6667H20.6667C24.3487 13.6667 27.3333 10.682 27.3333 7.00001ZM23.6667 7.00001C23.6667 7.88406 23.3155 8.73191 22.6904 9.35703C22.0652 9.98215 21.2174 10.3333 20.3333 10.3333C19.4493 10.3333 18.6014 9.98215 17.9763 9.35703C17.3512 8.73191 17 7.88406 17 7.00001C17 6.11595 17.3512 5.26811 17.9763 4.64299C18.6014 4.01787 19.4493 3.66668 20.3333 3.66668C21.2174 3.66668 22.0652 4.01787 22.6904 4.64299C23.3155 5.26811 23.6667 6.11595 23.6667 7.00001Z" fill="#EEEEEE"/>
</svg>
