<svg width="24" height="23" viewBox="0 0 24 23" fill="none" xmlns="http://www.w3.org/2000/svg">
<path d="M8.5 5.92813H10.8094V16.5C10.8094 16.6375 10.9219 16.75 11.0594 16.75H12.9344C13.0719 16.75 13.1844 16.6375 13.1844 16.5V5.92813H15.5C15.7094 5.92813 15.825 5.6875 15.6969 5.525L12.1969 1.09375C12.1735 1.06387 12.1436 1.03971 12.1095 1.02309C12.0754 1.00647 12.0379 0.997833 12 0.997833C11.9621 0.997833 11.9246 1.00647 11.8905 1.02309C11.8564 1.03971 11.8265 1.06387 11.8031 1.09375L8.30313 5.52188C8.175 5.68751 8.29063 5.92813 8.5 5.92813ZM23.4375 15.5625H21.5625C21.425 15.5625 21.3125 15.675 21.3125 15.8125V20.625H2.6875V15.8125C2.6875 15.675 2.575 15.5625 2.4375 15.5625H0.5625C0.425 15.5625 0.3125 15.675 0.3125 15.8125V22C0.3125 22.5531 0.759375 23 1.3125 23H22.6875C23.2406 23 23.6875 22.5531 23.6875 22V15.8125C23.6875 15.675 23.575 15.5625 23.4375 15.5625Z" fill="#EEEEEE"/>
</svg>
